<?xml version="1.0" encoding="UTF-8"?>
<svg id="Calque_1" xmlns="http://www.w3.org/2000/svg" version="1.1" viewBox="0 0 40 40">
  <!-- Generator: Adobe Illustrator 29.4.0, SVG Export Plug-In . SVG Version: 2.1.0 Build 152)  -->
  <defs>
    <style>
      .st0 {
        fill: #e59029;
      }

      .st1 {
        fill: #e5912c;
      }

      .st2 {
        fill: #fff;
      }

      .st3 {
        fill: #ccc6c0;
      }

      .st4 {
        fill: #ed972f;
      }

      .st5 {
        fill: #00326e;
      }

      .st6 {
        fill: #ed9832;
      }
    </style>
  </defs>
  <g id="_00326E">
    <path class="st5" d="M19.6.3c11,0,20,9,20,20s-9,20-20,20S-.4,31.4-.4,20.3H-.4C-.4,9.3,8.6.3,19.6.3Z"/>
  </g>
  <g>
    <path class="st6" d="M24.8,11.9c-.2,0-.3-.2-.3-.3v-2.1c0-.2.2-.3.3-.3s.3.2.3.3v2.1c0,.2-.2.3-.3.3Z"/>
    <path class="st1" d="M35.2,20.1h-2.1c-.2,0-.3-.2-.3-.3s.2-.3.3-.3h2.1c.2,0,.3.2.3.3s-.2.3-.3.3Z"/>
    <path class="st0" d="M30.6,14.3c0,0-.2,0-.2-.1-.1-.1-.1-.4,0-.5l1.5-1.5c.1-.1.4-.1.5,0s.1.4,0,.5l-1.5,1.5c0,0-.2.1-.2.1Z"/>
    <path class="st2" d="M30.4,24.8c-.3,0-.5-.3-.5-.6-.3-2.2-2.2-3.7-4.4-3.7s-1.8.3-2.6.8c-.2.1-.4.2-.6.1-.2,0-.4-.2-.5-.4-1-2.2-3.2-3.6-5.7-3.6-3.4,0-6.3,2.8-6.3,6.3s0,.3,0,.4c0,.3-.2.6-.5.7-1.4.5-2.4,1.8-2.4,3.3s1.6,3.5,3.5,3.5h18.8c1.9,0,3.5-1.6,3.5-3.5,0-1.6-1-2.9-2.5-3.3Z"/>
    <path class="st4" d="M21.9,18.5s0,0,0,0c0,0,.2.2.3.3,0,0,0,0,0,0,0,0,.2.2.2.3,0,0,0,0,0,0,0,.1.2.3.3.4.8-.4,1.8-.7,2.7-.7s.3,0,.5,0c0,0,0,0,.1,0,.1,0,.2,0,.4,0,0,0,0,0,0,0,.1,0,.3,0,.4,0,0,0,0,0,.1,0,.1,0,.2,0,.3,0,0,0,0,0,.1,0,.1,0,.2,0,.4.1,0,0,0,0,.1,0,0,0,.2,0,.2.1,0,0,.1,0,.2,0,0,0,.2,0,.2.1,0,0,.1,0,.2.1,0,0,.1,0,.2.1,0,0,.1,0,.2.1,0,0,0,0,.1.1,0,0,.2.2.3.3,0,0,0,0,.1.1,0,0,.1.1.2.2,0,0,0,0,.1.1,0,0,.1.1.1.2.2-.5.3-1.1.3-1.7,0-3.1-2.5-5.6-5.6-5.6s-3.9,1.2-4.9,2.9c.7.4,1.3.9,1.9,1.5Z"/>
    <path class="st3" d="M8.8,22.6c.5-3.7,3.7-6.5,7.5-6.5s1.6.1,2.4.4c.7-1.2,1.7-2.2,2.9-2.9-.6-.4-1.4-.7-2.3-.7s-1.7.3-2.3.7c-.9-1.8-2.7-3.1-4.9-3.1s-5.4,2.4-5.4,5.4,0,.2,0,.4c-1.3.4-2.2,1.6-2.2,3.1s1.5,3.2,3.2,3.2h1.1Z"/>
  </g>
</svg>